<?xml version="1.0" encoding="UTF-8"?>
<!DOCTYPE svg PUBLIC "-//W3C//DTD SVG 1.1//EN" "http://www.w3.org/Graphics/SVG/1.1/DTD/svg11.dtd">
<svg xmlns="http://www.w3.org/2000/svg" version="1.1" width="1024px" height="1024px" style="shape-rendering:geometricPrecision; text-rendering:geometricPrecision; image-rendering:optimizeQuality; fill-rule:evenodd; clip-rule:evenodd" xmlns:xlink="http://www.w3.org/1999/xlink">
<g><path style="opacity:1" fill="#fefef5" d="M -0.5,-0.5 C 340.833,-0.5 682.167,-0.5 1023.5,-0.5C 1023.5,340.833 1023.5,682.167 1023.5,1023.5C 682.167,1023.5 340.833,1023.5 -0.5,1023.5C -0.5,682.167 -0.5,340.833 -0.5,-0.5 Z"/></g>
<g><path style="opacity:1" fill="#82b84c" d="M 620.5,465.5 C 622.321,454.062 624.654,442.729 627.5,431.5C 653.624,432.649 678.957,428.816 703.5,420C 710.989,416.759 717.989,412.759 724.5,408C 712.503,411.746 700.169,414.413 687.5,416C 670.622,417.419 653.956,416.252 637.5,412.5C 636.417,411.635 636.251,410.635 637,409.5C 649.688,387.313 664.855,366.979 682.5,348.5C 682.833,348.5 683.167,348.5 683.5,348.5C 682.927,354.01 684.593,358.677 688.5,362.5C 689.347,363.966 690.68,364.8 692.5,365C 710.671,365.829 728.671,365.662 746.5,364.5C 747.189,344.295 747.856,323.961 748.5,303.5C 748.611,302.883 748.944,302.383 749.5,302C 758.167,301.333 766.833,301.333 775.5,302C 776.333,302.833 777.167,303.667 778,304.5C 778.5,324.164 778.667,343.831 778.5,363.5C 796.836,363.667 815.17,363.5 833.5,363C 836.146,362.196 838.146,360.696 839.5,358.5C 839.81,359.738 840.31,359.738 841,358.5C 841.333,357.5 841.667,356.5 842,355.5C 842.5,327.502 842.667,299.502 842.5,271.5C 847.179,271.666 851.845,271.499 856.5,271C 851.511,270.501 846.511,270.334 841.5,270.5C 846.651,269.673 851.984,269.173 857.5,269C 860.354,265.4 859.687,262.4 855.5,260C 839.941,251.392 824.607,242.559 809.5,233.5C 821.863,217.959 833.696,201.959 845,185.5C 852.288,173.925 858.788,161.925 864.5,149.5C 843.602,176.895 820.602,202.562 795.5,226.5C 794.193,225.847 792.86,225.18 791.5,224.5C 790.476,210.839 790.476,197.172 791.5,183.5C 793.5,183.5 795.5,183.5 797.5,183.5C 797.66,181.801 797.494,180.134 797,178.5C 786.511,167.045 775.678,155.878 764.5,145C 762.029,144.294 759.695,144.627 757.5,146C 747.333,156.833 737.167,167.667 727,178.5C 726.333,179.5 726.333,180.5 727,181.5C 729.041,182.423 731.208,182.756 733.5,182.5C 734.7,196.496 734.7,210.496 733.5,224.5C 711.338,236.747 689.338,249.247 667.5,262C 664.86,264.621 664.86,267.121 667.5,269.5C 672.305,270.487 677.305,270.821 682.5,270.5C 682.5,285.167 682.5,299.833 682.5,314.5C 659.415,334.047 639.582,356.38 623,381.5C 621.423,370.736 620.256,360.069 619.5,349.5C 619.129,329.289 620.629,309.289 624,289.5C 620.048,298.855 617.214,308.522 615.5,318.5C 612.269,329.495 610.102,340.828 609,352.5C 607.884,370.147 607.217,387.813 607,405.5C 602.279,414.833 598.445,424.5 595.5,434.5C 575.886,403.526 561.386,370.192 552,334.5C 540.272,260.145 564.772,200.978 625.5,157C 652.979,138.763 682.645,125.097 714.5,116C 741.838,108.999 769.172,101.999 796.5,95C 822.942,87.7751 847.608,76.7751 870.5,62C 880.239,55.0994 889.239,47.2661 897.5,38.5C 925.911,109.941 933.744,183.608 921,259.5C 911.219,316.708 888.219,367.708 852,412.5C 819.313,450.166 778.48,473.999 729.5,484C 691.257,489.118 654.923,482.951 620.5,465.5 Z"/></g>
<g><path style="opacity:1" fill="#fefef5" d="M 795.5,226.5 C 799.883,229.358 804.55,231.692 809.5,233.5C 824.607,242.559 839.941,251.392 855.5,260C 859.687,262.4 860.354,265.4 857.5,269C 851.984,269.173 846.651,269.673 841.5,270.5C 841.667,298.169 841.5,325.835 841,353.5C 840.648,355.247 840.148,356.914 839.5,358.5C 838.146,360.696 836.146,362.196 833.5,363C 815.17,363.5 796.836,363.667 778.5,363.5C 778.667,343.831 778.5,324.164 778,304.5C 777.167,303.667 776.333,302.833 775.5,302C 766.833,301.333 758.167,301.333 749.5,302C 748.944,302.383 748.611,302.883 748.5,303.5C 747.094,303.973 746.427,304.973 746.5,306.5C 745.503,325.326 745.17,344.326 745.5,363.5C 728.167,363.5 710.833,363.5 693.5,363.5C 691.784,363.371 690.117,363.038 688.5,362.5C 684.593,358.677 682.927,354.01 683.5,348.5C 683.5,322.167 683.5,295.833 683.5,269.5C 678.167,269.5 672.833,269.5 667.5,269.5C 664.86,267.121 664.86,264.621 667.5,262C 689.338,249.247 711.338,236.747 733.5,224.5C 734.7,210.496 734.7,196.496 733.5,182.5C 731.208,182.756 729.041,182.423 727,181.5C 726.333,180.5 726.333,179.5 727,178.5C 737.167,167.667 747.333,156.833 757.5,146C 759.695,144.627 762.029,144.294 764.5,145C 775.678,155.878 786.511,167.045 797,178.5C 797.494,180.134 797.66,181.801 797.5,183.5C 795.5,183.5 793.5,183.5 791.5,183.5C 790.476,197.172 790.476,210.839 791.5,224.5C 792.86,225.18 794.193,225.847 795.5,226.5 Z"/></g>
<g><path style="opacity:1" fill="#275333" d="M 864.5,149.5 C 864.795,147.577 865.628,145.91 867,144.5C 867.249,146.668 866.416,148.335 864.5,149.5 Z"/></g>
<g><path style="opacity:1" fill="#174c31" d="M 864.5,149.5 C 858.788,161.925 852.288,173.925 845,185.5C 833.696,201.959 821.863,217.959 809.5,233.5C 804.55,231.692 799.883,229.358 795.5,226.5C 820.602,202.562 843.602,176.895 864.5,149.5 Z"/></g>
<g><path style="opacity:1" fill="#7fb549" d="M 757.5,186.5 C 765.914,185.791 771.414,189.457 774,197.5C 774.83,203.196 774.663,208.863 773.5,214.5C 769.947,212.557 766.281,210.89 762.5,209.5C 758.226,210.97 754.226,212.97 750.5,215.5C 749.335,208.189 749.169,200.856 750,193.5C 751.742,190.254 754.242,187.921 757.5,186.5 Z"/></g>
<g><path style="opacity:1" fill="#b7cfa2" d="M 667.5,269.5 C 672.833,269.5 678.167,269.5 683.5,269.5C 683.5,295.833 683.5,322.167 683.5,348.5C 683.167,348.5 682.833,348.5 682.5,348.5C 682.5,337.167 682.5,325.833 682.5,314.5C 682.5,299.833 682.5,285.167 682.5,270.5C 677.305,270.821 672.305,270.487 667.5,269.5 Z"/></g>
<g><path style="opacity:1" fill="#764f33" d="M 494.5,303.5 C 493.912,310.751 492.912,318.085 491.5,325.5C 492.15,328.004 493.817,329.337 496.5,329.5C 501.436,332.601 505.603,336.601 509,341.5C 519.234,357.368 525.401,374.701 527.5,393.5C 523.453,389.808 518.786,387.141 513.5,385.5C 508.513,376.194 503.013,367.194 497,358.5C 492.614,353.611 487.78,349.278 482.5,345.5C 468.084,358.546 451.417,367.712 432.5,373C 411.164,378.274 389.497,381.274 367.5,382C 354.312,383.396 341.978,387.396 330.5,394C 327.745,395.711 325.411,397.878 323.5,400.5C 331.059,414.275 335.725,428.941 337.5,444.5C 330.325,458.362 324.325,472.695 319.5,487.5C 314.438,487.274 309.438,487.608 304.5,488.5C 299.772,489.698 295.439,491.698 291.5,494.5C 274.216,471.041 266.716,444.708 269,415.5C 271.812,400.382 279.146,388.048 291,378.5C 293.799,363.732 300.632,351.232 311.5,341C 323.379,331.556 336.379,323.889 350.5,318C 368.891,311.735 387.558,306.402 406.5,302C 429.147,294.851 449.147,283.351 466.5,267.5C 482.081,274.673 491.415,286.673 494.5,303.5 Z"/></g>
<g><path style="opacity:1" fill="#6fac34" d="M 817.5,301.5 C 816.817,294.766 816.15,287.932 815.5,281C 808.842,280.5 802.175,280.334 795.5,280.5C 795.334,287.508 795.5,294.508 796,301.5C 802.599,302.15 809.099,302.816 815.5,303.5C 808.825,303.666 802.158,303.5 795.5,303C 795,302.5 794.5,302 794,301.5C 793.333,294.5 793.333,287.5 794,280.5C 794.5,280 795,279.5 795.5,279C 802.167,278.333 808.833,278.333 815.5,279C 816,279.5 816.5,280 817,280.5C 817.5,287.492 817.666,294.492 817.5,301.5 Z"/></g>
<g><path style="opacity:1" fill="#82b84d" d="M 731.5,299.5 C 731.672,300.492 731.338,301.158 730.5,301.5C 729.922,300.453 729.256,300.62 728.5,302C 722.167,302.667 715.833,302.667 709.5,302C 708.167,295 708.167,288 709.5,281C 716.158,280.5 722.825,280.334 729.5,280.5C 729.334,286.509 729.501,292.509 730,298.5C 730.383,299.056 730.883,299.389 731.5,299.5 Z"/></g>
<g><path style="opacity:1" fill="#82b84d" d="M 817.5,301.5 C 817.167,302.5 816.5,303.167 815.5,303.5C 809.099,302.816 802.599,302.15 796,301.5C 795.5,294.508 795.334,287.508 795.5,280.5C 802.175,280.334 808.842,280.5 815.5,281C 816.15,287.932 816.817,294.766 817.5,301.5 Z"/></g>
<g><path style="opacity:1" fill="#79b140" d="M 731.5,299.5 C 730.883,299.389 730.383,299.056 730,298.5C 729.501,292.509 729.334,286.509 729.5,280.5C 722.825,280.334 716.158,280.5 709.5,281C 708.167,288 708.167,295 709.5,302C 715.833,302.667 722.167,302.667 728.5,302C 729.256,300.62 729.922,300.453 730.5,301.5C 730.389,302.117 730.056,302.617 729.5,303C 722.5,303.667 715.5,303.667 708.5,303C 707.874,302.25 707.374,301.416 707,300.5C 706.333,294.167 706.333,287.833 707,281.5C 707.833,280.667 708.667,279.833 709.5,279C 716.167,278.333 722.833,278.333 729.5,279C 730.126,279.75 730.626,280.584 731,281.5C 731.499,287.491 731.666,293.491 731.5,299.5 Z"/></g>
<g><path style="opacity:1" fill="#60a21b" d="M 841.5,270.5 C 846.511,270.334 851.511,270.501 856.5,271C 851.845,271.499 847.179,271.666 842.5,271.5C 842.667,299.502 842.5,327.502 842,355.5C 841.667,356.5 841.333,357.5 841,358.5C 840.31,359.738 839.81,359.738 839.5,358.5C 840.148,356.914 840.648,355.247 841,353.5C 841.5,325.835 841.667,298.169 841.5,270.5 Z"/></g>
<g><path style="opacity:1" fill="#0c3d2d" d="M 619.5,349.5 C 618.253,341.513 618.086,328.18 619,309.5C 618.125,312.883 617.125,316.216 616,319.5C 615.601,319.272 615.435,318.938 615.5,318.5C 617.214,308.522 620.048,298.855 624,289.5C 620.629,309.289 619.129,329.289 619.5,349.5 Z"/></g>
<g><path style="opacity:1" fill="#81b74b" d="M 708.5,309.5 C 715.508,309.334 722.508,309.5 729.5,310C 730,310.5 730.5,311 731,311.5C 731.667,318.167 731.667,324.833 731,331.5C 730.692,332.308 730.192,332.975 729.5,333.5C 722.884,334.628 716.218,334.795 709.5,334C 708.667,333.167 707.833,332.333 707,331.5C 706.333,325.167 706.333,318.833 707,312.5C 707.513,311.473 708.013,310.473 708.5,309.5 Z"/></g>
<g><path style="opacity:1" fill="#7fb649" d="M 795.5,309.5 C 802.175,309.334 808.842,309.5 815.5,310C 816,310.5 816.5,311 817,311.5C 817.667,318.5 817.667,325.5 817,332.5C 816.5,333 816,333.5 815.5,334C 809.167,334.667 802.833,334.667 796.5,334C 795.584,333.626 794.75,333.126 794,332.5C 793.333,325.5 793.333,318.5 794,311.5C 794.717,310.956 795.217,310.289 795.5,309.5 Z"/></g>
<g><path style="opacity:1" fill="#55280c" d="M 494.5,303.5 C 494.964,310.967 494.297,318.301 492.5,325.5C 493.867,326.84 495.2,328.173 496.5,329.5C 493.817,329.337 492.15,328.004 491.5,325.5C 492.912,318.085 493.912,310.751 494.5,303.5 Z"/></g>
<g><path style="opacity:1" fill="#5da21a" d="M 748.5,303.5 C 747.856,323.961 747.189,344.295 746.5,364.5C 746.5,345.167 746.5,325.833 746.5,306.5C 746.427,304.973 747.094,303.973 748.5,303.5 Z"/></g>
<g><path style="opacity:1" fill="#fecca4" d="M 513.5,385.5 C 505.82,384.202 498.154,384.202 490.5,385.5C 490.265,384.903 489.765,384.57 489,384.5C 477.025,387.573 465.858,392.407 455.5,399C 447.736,401.941 439.736,403.941 431.5,405C 432.094,405.464 432.761,405.631 433.5,405.5C 421.319,406.281 408.986,407.114 396.5,408C 371.31,411.579 351.643,423.745 337.5,444.5C 335.725,428.941 331.059,414.275 323.5,400.5C 325.411,397.878 327.745,395.711 330.5,394C 341.978,387.396 354.312,383.396 367.5,382C 389.497,381.274 411.164,378.274 432.5,373C 451.417,367.712 468.084,358.546 482.5,345.5C 487.78,349.278 492.614,353.611 497,358.5C 503.013,367.194 508.513,376.194 513.5,385.5 Z"/></g>
<g><path style="opacity:1" fill="#b6d392" d="M 746.5,306.5 C 746.5,325.833 746.5,345.167 746.5,364.5C 728.659,364.83 710.992,364.497 693.5,363.5C 710.833,363.5 728.167,363.5 745.5,363.5C 745.17,344.326 745.503,325.326 746.5,306.5 Z"/></g>
<g><path style="opacity:1" fill="#62a521" d="M 688.5,362.5 C 690.117,363.038 691.784,363.371 693.5,363.5C 710.992,364.497 728.659,364.83 746.5,364.5C 728.671,365.662 710.671,365.829 692.5,365C 690.68,364.8 689.347,363.966 688.5,362.5 Z"/></g>
<g><path style="opacity:1" fill="#efdbb0" d="M 490.5,385.5 C 484.82,387.226 479.154,389.06 473.5,391C 461.514,399.49 448.181,404.324 433.5,405.5C 432.761,405.631 432.094,405.464 431.5,405C 439.736,403.941 447.736,401.941 455.5,399C 465.858,392.407 477.025,387.573 489,384.5C 489.765,384.57 490.265,384.903 490.5,385.5 Z"/></g>
<g><path style="opacity:1" fill="#194f32" d="M 513.5,385.5 C 518.786,387.141 523.453,389.808 527.5,393.5C 537.45,409.415 543.45,426.748 545.5,445.5C 545.699,448.941 545.199,452.274 544,455.5C 541.999,458.331 539.833,460.997 537.5,463.5C 526.823,469.043 515.489,470.876 503.5,469C 496.384,466.275 489.384,463.275 482.5,460C 469.203,457.602 457.869,461.102 448.5,470.5C 439.096,478.712 429.096,486.212 418.5,493C 409.836,497.497 400.836,500.664 391.5,502.5C 365.885,504.911 341.885,499.911 319.5,487.5C 324.325,472.695 330.325,458.362 337.5,444.5C 351.643,423.745 371.31,411.579 396.5,408C 408.986,407.114 421.319,406.281 433.5,405.5C 448.181,404.324 461.514,399.49 473.5,391C 479.154,389.06 484.82,387.226 490.5,385.5C 498.154,384.202 505.82,384.202 513.5,385.5 Z"/></g>
<g><path style="opacity:1" fill="#fbf8ef" d="M 506.5,456.5 C 483.834,451.794 475.501,438.127 481.5,415.5C 488.217,405.222 497.217,402.722 508.5,408C 519.941,417.661 523.774,429.827 520,444.5C 517.779,451.23 513.279,455.23 506.5,456.5 Z"/></g>
<g><path style="opacity:1" fill="#174b2e" d="M 496.5,414.5 C 504.111,413.93 509.278,417.264 512,424.5C 513.11,430.426 512.444,436.092 510,441.5C 499.174,447.251 492.84,443.918 491,431.5C 488.959,424.351 490.792,418.685 496.5,414.5 Z"/></g>
<g><path style="opacity:1" fill="#0b3216" d="M 481.5,415.5 C 475.501,438.127 483.834,451.794 506.5,456.5C 506.621,457.843 504.288,458.01 499.5,457C 480.144,448.8 474.144,434.967 481.5,415.5 Z"/></g>
<g><path style="opacity:1" fill="#fecba3" d="M 545.5,445.5 C 561.481,484.078 554.148,517.578 523.5,546C 512.788,555.021 501.121,562.521 488.5,568.5C 487.833,568.5 487.167,568.5 486.5,568.5C 482.163,570.386 477.83,572.053 473.5,573.5C 464.224,575.486 454.891,577.152 445.5,578.5C 432.321,578.894 418.988,578.394 405.5,577C 396.653,575.786 387.986,573.953 379.5,571.5C 372.712,569.774 366.378,566.941 360.5,563C 353.807,558.652 347.474,553.818 341.5,548.5C 321.482,560.117 304.649,556.45 291,537.5C 285.577,528.906 283.244,519.573 284,509.5C 285.454,503.926 287.954,498.926 291.5,494.5C 295.439,491.698 299.772,489.698 304.5,488.5C 308.977,488.752 313.643,488.919 318.5,489C 333.25,495.806 348.584,500.806 364.5,504C 374.552,504.865 384.552,504.531 394.5,503C 393.552,502.517 392.552,502.351 391.5,502.5C 400.836,500.664 409.836,497.497 418.5,493C 429.096,486.212 439.096,478.712 448.5,470.5C 454.226,466.312 460.559,463.145 467.5,461C 471.833,460.333 476.167,460.333 480.5,461C 486.695,463.095 492.695,465.761 498.5,469C 507.077,471.81 515.744,472.144 524.5,470C 529.453,468.857 533.786,466.69 537.5,463.5C 539.833,460.997 541.999,458.331 544,455.5C 545.199,452.274 545.699,448.941 545.5,445.5 Z"/></g>
<g><path style="opacity:1" fill="#f2deb3" d="M 537.5,463.5 C 533.786,466.69 529.453,468.857 524.5,470C 515.744,472.144 507.077,471.81 498.5,469C 492.695,465.761 486.695,463.095 480.5,461C 476.167,460.333 471.833,460.333 467.5,461C 460.559,463.145 454.226,466.312 448.5,470.5C 457.869,461.102 469.203,457.602 482.5,460C 489.384,463.275 496.384,466.275 503.5,469C 515.489,470.876 526.823,469.043 537.5,463.5 Z"/></g>
<g><path style="opacity:1" fill="#faf8ef" d="M 391.5,429.5 C 406.127,428.28 415.96,434.613 421,448.5C 424.653,458.035 424.319,467.368 420,476.5C 411.916,484.026 402.75,485.526 392.5,481C 378.915,471.478 374.415,458.645 379,442.5C 381.353,436.315 385.52,431.982 391.5,429.5 Z"/></g>
<g><path style="opacity:1" fill="#174c2e" d="M 398.5,439.5 C 411.994,441.177 417.827,448.843 416,462.5C 413.416,470.069 408.249,472.569 400.5,470C 392.136,465.275 388.97,458.108 391,448.5C 392.113,444.234 394.613,441.234 398.5,439.5 Z"/></g>
<g><path style="opacity:1" fill="#6f482c" d="M 470.5,470.5 C 476.233,469.891 481.4,471.224 486,474.5C 488.99,480.986 487.657,486.319 482,490.5C 481.667,487.5 481.333,484.5 481,481.5C 479.992,479.741 478.492,478.574 476.5,478C 472.5,477.333 468.5,477.333 464.5,478C 462.945,479.289 461.279,479.956 459.5,480C 462.769,476.221 466.436,473.054 470.5,470.5 Z"/></g>
<g><path style="opacity:1" fill="#f4e2b5" d="M 319.5,487.5 C 341.885,499.911 365.885,504.911 391.5,502.5C 392.552,502.351 393.552,502.517 394.5,503C 384.552,504.531 374.552,504.865 364.5,504C 348.584,500.806 333.25,495.806 318.5,489C 313.643,488.919 308.977,488.752 304.5,488.5C 309.438,487.608 314.438,487.274 319.5,487.5 Z"/></g>
<g><path style="opacity:1" fill="#724a2e" d="M 305.5,505.5 C 315.705,504.377 322.872,508.377 327,517.5C 327.667,518.5 327.667,519.5 327,520.5C 317.58,513.24 308.08,512.906 298.5,519.5C 295.743,515.765 296.076,512.265 299.5,509C 301.432,507.541 303.432,506.375 305.5,505.5 Z"/></g>
<g><path style="opacity:1" fill="#734c30" d="M 420.5,513.5 C 431.178,517.113 442.178,519.113 453.5,519.5C 463.591,518.818 473.591,517.485 483.5,515.5C 482.154,520.019 479.154,523.186 474.5,525C 458.612,531.274 442.946,530.94 427.5,524C 422.884,521.907 420.551,518.407 420.5,513.5 Z"/></g>
<g><path style="opacity:1" fill="#efd8ae" d="M 379.5,572.5 C 379.5,572.167 379.5,571.833 379.5,571.5C 387.986,573.953 396.653,575.786 405.5,577C 418.988,578.394 432.321,578.894 445.5,578.5C 430.838,579.792 416.172,579.792 401.5,578.5C 394.091,577.145 386.758,575.145 379.5,572.5 Z"/></g>
<g><path style="opacity:1" fill="#195134" d="M 486.5,568.5 C 488.023,573.148 487.689,577.648 485.5,582C 487.007,582.837 487.507,584.004 487,585.5C 481.623,593.545 474.456,599.378 465.5,603C 462.262,604.368 458.928,604.701 455.5,604C 461.342,593.975 467.675,584.308 474.5,575C 474.43,574.235 474.097,573.735 473.5,573.5C 477.83,572.053 482.163,570.386 486.5,568.5 Z"/></g>
<g><path style="opacity:1" fill="#0f3f24" d="M 486.5,568.5 C 487.167,568.5 487.833,568.5 488.5,568.5C 488.611,572.642 489.611,576.308 491.5,579.5C 490.128,592.035 483.461,600.202 471.5,604C 457.616,608.298 443.616,608.632 429.5,605C 416.752,601.98 404.085,598.646 391.5,595C 384.947,593.021 378.28,592.354 371.5,593C 340.079,607.801 312.913,628.301 290,654.5C 283.827,663.014 280.327,672.514 279.5,683C 280.667,692.51 284.167,701.01 290,708.5C 300.644,719.733 312.811,728.9 326.5,736C 333.672,759.752 348.005,765.419 369.5,753C 381.748,743.266 385.248,731.099 380,716.5C 370.34,706.522 359.34,704.855 347,711.5C 341.761,702.693 336.261,694.027 330.5,685.5C 347.595,671.779 365.262,658.779 383.5,646.5C 380.063,663.192 377.73,680.358 376.5,698C 376.305,700.352 376.972,702.352 378.5,704C 420.167,722.433 462.501,724.267 505.5,709.5C 506.429,708.311 506.762,706.978 506.5,705.5C 508.124,705.64 509.29,704.973 510,703.5C 510.399,703.728 510.565,704.062 510.5,704.5C 508.852,714.592 506.185,724.426 502.5,734C 503.544,735.174 504.544,736.341 505.5,737.5C 504.417,737.461 503.417,737.127 502.5,736.5C 480.975,745.638 458.475,749.971 435,749.5C 420.058,749.105 405.558,746.438 391.5,741.5C 383.217,760.456 368.884,771.456 348.5,774.5C 343.518,784.128 338.851,793.795 334.5,803.5C 334.877,801.742 335.544,800.075 336.5,798.5C 324.435,791.57 311.435,788.903 297.5,790.5C 301.312,789.676 305.312,789.176 309.5,789C 301.48,788.565 293.48,788.899 285.5,790C 287.134,790.494 288.801,790.66 290.5,790.5C 272.189,794.085 254.189,792.585 236.5,786C 226.223,780.389 218.723,772.222 214,761.5C 211.919,752.504 208.919,743.838 205,735.5C 199.188,727.173 191.354,721.673 181.5,719C 164.923,715.818 148.256,713.152 131.5,711C 125.602,709.876 120.268,707.709 115.5,704.5C 121.838,707.389 128.504,709.055 135.5,709.5C 142.739,708.587 149.739,706.754 156.5,704C 166.817,699.176 176.817,693.842 186.5,688C 218.979,664.592 251.979,641.926 285.5,620C 311.495,604.446 339.495,594.446 369.5,590C 375.833,589.333 382.167,589.333 388.5,590C 407.899,594.35 427.233,599.016 446.5,604C 449.227,604.818 451.894,604.652 454.5,603.5C 444.167,596.167 433.833,588.833 423.5,581.5C 417.193,580.669 410.859,580.169 404.5,580C 402.494,579.917 401.494,579.417 401.5,578.5C 416.172,579.792 430.838,579.792 445.5,578.5C 454.891,577.152 464.224,575.486 473.5,573.5C 474.097,573.735 474.43,574.235 474.5,575C 467.675,584.308 461.342,593.975 455.5,604C 458.928,604.701 462.262,604.368 465.5,603C 474.456,599.378 481.623,593.545 487,585.5C 487.507,584.004 487.007,582.837 485.5,582C 487.689,577.648 488.023,573.148 486.5,568.5 Z"/></g>
<g><path style="opacity:1" fill="#195033" d="M 619.5,349.5 C 620.256,360.069 621.423,370.736 623,381.5C 639.582,356.38 659.415,334.047 682.5,314.5C 682.5,325.833 682.5,337.167 682.5,348.5C 664.855,366.979 649.688,387.313 637,409.5C 636.251,410.635 636.417,411.635 637.5,412.5C 653.956,416.252 670.622,417.419 687.5,416C 700.169,414.413 712.503,411.746 724.5,408C 717.989,412.759 710.989,416.759 703.5,420C 678.957,428.816 653.624,432.649 627.5,431.5C 624.654,442.729 622.321,454.062 620.5,465.5C 619.198,476.831 619.198,488.164 620.5,499.5C 635.489,499.743 644.989,507.076 649,521.5C 653.401,538.462 648.901,552.462 635.5,563.5C 642.573,577.985 650.406,591.985 659,605.5C 661.142,617.072 656.309,624.238 644.5,627C 639.56,628.041 634.894,627.374 630.5,625C 627.067,621.958 624.234,618.458 622,614.5C 616.409,603.382 611.409,592.048 607,580.5C 589.216,603.132 567.716,621.132 542.5,634.5C 534.399,638.3 526.232,641.967 518,645.5C 516.586,639.095 514.919,632.761 513,626.5C 513.121,646.631 513.621,666.631 514.5,686.5C 513.583,692.706 512.249,698.706 510.5,704.5C 510.565,704.062 510.399,703.728 510,703.5C 509.29,704.973 508.124,705.64 506.5,705.5C 506.762,706.978 506.429,708.311 505.5,709.5C 462.501,724.267 420.167,722.433 378.5,704C 376.972,702.352 376.305,700.352 376.5,698C 377.73,680.358 380.063,663.192 383.5,646.5C 365.262,658.779 347.595,671.779 330.5,685.5C 336.261,694.027 341.761,702.693 347,711.5C 359.34,704.855 370.34,706.522 380,716.5C 385.248,731.099 381.748,743.266 369.5,753C 348.005,765.419 333.672,759.752 326.5,736C 312.811,728.9 300.644,719.733 290,708.5C 284.167,701.01 280.667,692.51 279.5,683C 280.327,672.514 283.827,663.014 290,654.5C 312.913,628.301 340.079,607.801 371.5,593C 378.28,592.354 384.947,593.021 391.5,595C 404.085,598.646 416.752,601.98 429.5,605C 443.616,608.632 457.616,608.298 471.5,604C 483.461,600.202 490.128,592.035 491.5,579.5C 516.042,583.824 538.709,578.991 559.5,565C 567.195,559.817 574.528,554.151 581.5,548C 576.221,534.279 579.055,522.446 590,512.5C 586.579,486.114 588.412,460.114 595.5,434.5C 598.445,424.5 602.279,414.833 607,405.5C 607.217,387.813 607.884,370.147 609,352.5C 610.102,340.828 612.269,329.495 615.5,318.5C 615.435,318.938 615.601,319.272 616,319.5C 617.125,316.216 618.125,312.883 619,309.5C 618.086,328.18 618.253,341.513 619.5,349.5 Z"/></g>
<g><path style="opacity:1" fill="#0f4025" d="M 611.5,521.5 C 612.461,529.889 614.961,537.889 619,545.5C 623.432,551.299 629.266,553.632 636.5,552.5C 636.709,558.178 633.876,560.512 628,559.5C 614.871,556.697 607.704,548.53 606.5,535C 607.088,530.067 608.754,525.567 611.5,521.5 Z"/></g>
<g><path style="opacity:1" fill="#0e371f" d="M 542.5,634.5 C 535.119,639.524 527.119,643.524 518.5,646.5C 517.226,659.845 515.893,673.178 514.5,686.5C 513.621,666.631 513.121,646.631 513,626.5C 514.919,632.761 516.586,639.095 518,645.5C 526.232,641.967 534.399,638.3 542.5,634.5 Z"/></g>
<g><path style="opacity:1" fill="#ecf1ec" d="M 211.5,641.5 C 179.711,656.154 146.211,664.154 111,665.5C 101.734,665.279 92.567,664.279 83.5,662.5C 83.3253,664.621 83.6586,666.621 84.5,668.5C 83.6236,668.631 82.9569,668.298 82.5,667.5C 79.5283,664.168 80.0283,661.835 84,660.5C 113.252,665.659 142.085,663.826 170.5,655C 182.859,651.658 194.859,647.325 206.5,642C 208.134,641.506 209.801,641.34 211.5,641.5 Z"/></g>
<g><path style="opacity:1" fill="#195033" d="M 379.5,572.5 C 386.758,575.145 394.091,577.145 401.5,578.5C 401.494,579.417 402.494,579.917 404.5,580C 410.859,580.169 417.193,580.669 423.5,581.5C 433.833,588.833 444.167,596.167 454.5,603.5C 451.894,604.652 449.227,604.818 446.5,604C 427.233,599.016 407.899,594.35 388.5,590C 382.167,589.333 375.833,589.333 369.5,590C 339.495,594.446 311.495,604.446 285.5,620C 251.979,641.926 218.979,664.592 186.5,688C 176.817,693.842 166.817,699.176 156.5,704C 149.739,706.754 142.739,708.587 135.5,709.5C 128.504,709.055 121.838,707.389 115.5,704.5C 110.951,702.131 106.785,699.131 103,695.5C 95.8312,687.168 89.6646,678.168 84.5,668.5C 83.6586,666.621 83.3253,664.621 83.5,662.5C 92.567,664.279 101.734,665.279 111,665.5C 146.211,664.154 179.711,656.154 211.5,641.5C 236.579,629.797 260.579,616.297 283.5,601C 313.423,584.526 345.423,575.026 379.5,572.5 Z"/></g>
<g><path style="opacity:1" fill="#011402" d="M 297.5,790.5 C 295.167,790.5 292.833,790.5 290.5,790.5C 288.801,790.66 287.134,790.494 285.5,790C 293.48,788.899 301.48,788.565 309.5,789C 305.312,789.176 301.312,789.676 297.5,790.5 Z"/></g>
<g><path style="opacity:1" fill="#195133" d="M 505.5,737.5 C 522.436,748.602 536.603,762.602 548,779.5C 557.998,796.185 557.998,812.851 548,829.5C 541.095,840.237 532.929,849.904 523.5,858.5C 501.391,855.704 488.057,843.704 483.5,822.5C 484.108,820.316 483.441,818.316 481.5,816.5C 485.614,817.21 489.614,818.543 493.5,820.5C 494.696,820.154 494.696,819.654 493.5,819C 480.944,809.448 467.611,801.115 453.5,794C 450.57,792.682 447.57,792.015 444.5,792C 443.072,794.185 441.405,796.185 439.5,798C 439.728,798.399 440.062,798.565 440.5,798.5C 411.288,825.435 381.288,851.435 350.5,876.5C 330.636,878.467 316.47,870.133 308,851.5C 307.506,849.866 307.34,848.199 307.5,846.5C 316.753,832.327 325.753,817.994 334.5,803.5C 338.851,793.795 343.518,784.128 348.5,774.5C 368.884,771.456 383.217,760.456 391.5,741.5C 405.558,746.438 420.058,749.105 435,749.5C 458.475,749.971 480.975,745.638 502.5,736.5C 503.417,737.127 504.417,737.461 505.5,737.5 Z"/></g>
<g><path style="opacity:1" fill="#0e3c22" d="M 481.5,816.5 C 468.408,809.352 454.741,803.352 440.5,798.5C 440.062,798.565 439.728,798.399 439.5,798C 441.405,796.185 443.072,794.185 444.5,792C 447.57,792.015 450.57,792.682 453.5,794C 467.611,801.115 480.944,809.448 493.5,819C 494.696,819.654 494.696,820.154 493.5,820.5C 489.614,818.543 485.614,817.21 481.5,816.5 Z"/></g>
<g><path style="opacity:1" fill="#0f3e24" d="M 483.5,822.5 C 488.057,843.704 501.391,855.704 523.5,858.5C 512.083,868.713 499.749,877.713 486.5,885.5C 489.388,894.44 491.055,903.607 491.5,913C 491.586,927.95 484.919,932.283 471.5,926C 458.715,915.557 448.549,903.057 441,888.5C 440.333,884.833 440.333,881.167 441,877.5C 455.413,859.267 469.579,840.933 483.5,822.5 Z"/></g>
<g><path style="opacity:1" fill="#0f3e24" d="M 307.5,846.5 C 307.34,848.199 307.506,849.866 308,851.5C 316.47,870.133 330.636,878.467 350.5,876.5C 341.21,886.953 331.044,896.62 320,905.5C 316.216,918.732 310.55,931.065 303,942.5C 299.084,948.123 293.751,951.457 287,952.5C 282.85,951.688 279.85,949.354 278,945.5C 270.179,926.514 270.846,907.847 280,889.5C 288.399,876.093 296.399,862.426 304,848.5C 304.816,847.177 305.983,846.511 307.5,846.5 Z"/></g>
</svg>
